<mxfile host="Electron" agent="Mozilla/5.0 (Windows NT 10.0; Win64; x64) AppleWebKit/537.36 (KHTML, like Gecko) draw.io/22.1.2 Chrome/114.0.5735.289 Electron/25.9.4 Safari/537.36" modified="2024-11-23T13:51:57.665Z" version="22.1.2" etag="eOJG6F2tSHSQu0zoe_TL" type="device">
  <diagram name="Seite-1" id="wBmc9Wb5vL5zebEa-REE">
    <mxGraphModel dx="1025" dy="585" grid="1" gridSize="10" guides="1" tooltips="1" connect="1" arrows="1" fold="1" page="1" pageScale="1" pageWidth="583" pageHeight="827" math="0" shadow="0">
      <root>
        <mxCell id="0" />
        <mxCell id="1" parent="0" />
        <mxCell id="3-U5LCugHPh-dIs5eWnf-4" value="" style="rounded=0;whiteSpace=wrap;html=1;" vertex="1" parent="1">
          <mxGeometry x="400" y="120" width="170" height="330" as="geometry" />
        </mxCell>
        <mxCell id="QrvdLahfiG83trktpzz3-72" value="&lt;b style=&quot;font-size: 18px;&quot;&gt;Hardware Concept AllegroHand_FSR_Board&lt;/b&gt;" style="text;html=1;strokeColor=none;fillColor=none;align=left;verticalAlign=middle;whiteSpace=wrap;rounded=0;" parent="1" vertex="1">
          <mxGeometry x="25" y="20" width="430" height="30" as="geometry" />
        </mxCell>
        <mxCell id="QrvdLahfiG83trktpzz3-75" value="&lt;font style=&quot;font-size: 12px;&quot;&gt;Lennert Maurer, 16.09.2024, V1 Rev0&lt;br&gt;&lt;/font&gt;" style="text;html=1;strokeColor=none;fillColor=none;align=left;verticalAlign=middle;whiteSpace=wrap;rounded=0;" parent="1" vertex="1">
          <mxGeometry x="25" y="40" width="430" height="20" as="geometry" />
        </mxCell>
        <mxCell id="KAy5WQcNETprFYr2Bd6S-50" value="&lt;font style=&quot;&quot;&gt;&lt;span style=&quot;font-size: 16px;&quot;&gt;&lt;b&gt;Status LED&#39;s&lt;/b&gt;&lt;/span&gt;&lt;br&gt;&lt;hr style=&quot;font-size: 10px;&quot;&gt;&lt;font style=&quot;font-size: 10px;&quot;&gt;APHF1608SEEQBDZGKC&lt;/font&gt;&lt;br&gt;&lt;/font&gt;&lt;div&gt;&lt;font style=&quot;&quot;&gt;&lt;font style=&quot;font-size: 10px;&quot;&gt;(RGB)&lt;/font&gt;&lt;/font&gt;&lt;/div&gt;" style="rounded=1;whiteSpace=wrap;html=1;fillColor=#d5e8d4;strokeColor=#82b366;" parent="1" vertex="1">
          <mxGeometry x="126" y="484.4" width="130" height="70" as="geometry" />
        </mxCell>
        <mxCell id="WmwB9j65BN_4iLi_Jy5D-10" style="edgeStyle=orthogonalEdgeStyle;rounded=0;orthogonalLoop=1;jettySize=auto;html=1;exitX=0.5;exitY=1;exitDx=0;exitDy=0;entryX=0.5;entryY=0;entryDx=0;entryDy=0;" parent="1" source="KAy5WQcNETprFYr2Bd6S-60" target="KAy5WQcNETprFYr2Bd6S-63" edge="1">
          <mxGeometry relative="1" as="geometry" />
        </mxCell>
        <mxCell id="WmwB9j65BN_4iLi_Jy5D-11" value="PWR" style="edgeLabel;html=1;align=center;verticalAlign=middle;resizable=0;points=[];" parent="WmwB9j65BN_4iLi_Jy5D-10" vertex="1" connectable="0">
          <mxGeometry x="-0.2094" y="3" relative="1" as="geometry">
            <mxPoint as="offset" />
          </mxGeometry>
        </mxCell>
        <mxCell id="KAy5WQcNETprFYr2Bd6S-60" value="&lt;font style=&quot;&quot;&gt;&lt;span style=&quot;font-size: 16px;&quot;&gt;&lt;b&gt;DC/DC&lt;/b&gt;&lt;/span&gt;&lt;br&gt;&lt;hr style=&quot;font-size: 10px;&quot;&gt;LTM8063/&amp;nbsp;LM27761&lt;br&gt;&lt;/font&gt;" style="rounded=1;whiteSpace=wrap;html=1;fillColor=#fff2cc;strokeColor=#d6b656;" parent="1" vertex="1">
          <mxGeometry x="221" y="249.39999999999998" width="130" height="70" as="geometry" />
        </mxCell>
        <mxCell id="WmwB9j65BN_4iLi_Jy5D-12" style="edgeStyle=orthogonalEdgeStyle;rounded=0;orthogonalLoop=1;jettySize=auto;html=1;entryX=0.5;entryY=0;entryDx=0;entryDy=0;exitX=0.223;exitY=1.015;exitDx=0;exitDy=0;exitPerimeter=0;" parent="1" source="KAy5WQcNETprFYr2Bd6S-63" target="KAy5WQcNETprFYr2Bd6S-50" edge="1">
          <mxGeometry relative="1" as="geometry">
            <mxPoint x="256" y="445" as="sourcePoint" />
          </mxGeometry>
        </mxCell>
        <mxCell id="WmwB9j65BN_4iLi_Jy5D-13" value="1xIO" style="edgeLabel;html=1;align=center;verticalAlign=middle;resizable=0;points=[];" parent="WmwB9j65BN_4iLi_Jy5D-12" vertex="1" connectable="0">
          <mxGeometry x="-0.0549" y="1" relative="1" as="geometry">
            <mxPoint x="-5" as="offset" />
          </mxGeometry>
        </mxCell>
        <mxCell id="WmwB9j65BN_4iLi_Jy5D-17" style="edgeStyle=orthogonalEdgeStyle;rounded=0;orthogonalLoop=1;jettySize=auto;html=1;exitX=0.75;exitY=1;exitDx=0;exitDy=0;entryX=0.5;entryY=0;entryDx=0;entryDy=0;" parent="1" source="KAy5WQcNETprFYr2Bd6S-63" target="WmwB9j65BN_4iLi_Jy5D-16" edge="1">
          <mxGeometry relative="1" as="geometry" />
        </mxCell>
        <mxCell id="WmwB9j65BN_4iLi_Jy5D-18" value="I^2C" style="edgeLabel;html=1;align=center;verticalAlign=middle;resizable=0;points=[];" parent="WmwB9j65BN_4iLi_Jy5D-17" vertex="1" connectable="0">
          <mxGeometry x="-0.1622" relative="1" as="geometry">
            <mxPoint x="8" as="offset" />
          </mxGeometry>
        </mxCell>
        <mxCell id="KAy5WQcNETprFYr2Bd6S-63" value="&lt;font style=&quot;&quot;&gt;&lt;span style=&quot;font-size: 16px;&quot;&gt;&lt;b&gt;MCU&lt;/b&gt;&lt;/span&gt;&lt;br&gt;&lt;hr style=&quot;font-size: 10px;&quot;&gt;STM32F373V8T6&lt;br&gt;SWD (Tag Connect)&lt;br&gt;&lt;/font&gt;" style="rounded=1;whiteSpace=wrap;html=1;fillColor=#f8cecc;strokeColor=#b85450;" parent="1" vertex="1">
          <mxGeometry x="216" y="363.79999999999995" width="140" height="81.2" as="geometry" />
        </mxCell>
        <mxCell id="KAy5WQcNETprFYr2Bd6S-100" style="edgeStyle=orthogonalEdgeStyle;rounded=0;orthogonalLoop=1;jettySize=auto;html=1;exitX=0.5;exitY=1;exitDx=0;exitDy=0;" parent="1" source="KAy5WQcNETprFYr2Bd6S-88" edge="1">
          <mxGeometry relative="1" as="geometry">
            <mxPoint x="486" y="249.39999999999986" as="targetPoint" />
          </mxGeometry>
        </mxCell>
        <mxCell id="WmwB9j65BN_4iLi_Jy5D-21" value="Analog-Sig." style="edgeLabel;html=1;align=center;verticalAlign=middle;resizable=0;points=[];" parent="KAy5WQcNETprFYr2Bd6S-100" vertex="1" connectable="0">
          <mxGeometry x="-0.0168" y="-2" relative="1" as="geometry">
            <mxPoint as="offset" />
          </mxGeometry>
        </mxCell>
        <mxCell id="KAy5WQcNETprFYr2Bd6S-88" value="&lt;font style=&quot;&quot;&gt;&lt;span style=&quot;font-size: 16px;&quot;&gt;&lt;b&gt;Force-Sensor&lt;/b&gt;&lt;/span&gt;&lt;br&gt;&lt;hr style=&quot;font-size: 10px;&quot;&gt;&amp;nbsp;&lt;/font&gt;&lt;span style=&quot;background-color: initial;&quot;&gt;Polymer Membr. Res.&lt;br&gt;&lt;/span&gt;&lt;div&gt;&lt;span style=&quot;background-color: initial;&quot;&gt;MF01A-N-221-A04&lt;/span&gt;&lt;span style=&quot;background-color: initial;&quot;&gt;&amp;nbsp;&lt;/span&gt;&lt;/div&gt;" style="rounded=1;whiteSpace=wrap;html=1;fillColor=#d5e8d4;strokeColor=#82b366;" parent="1" vertex="1">
          <mxGeometry x="421" y="130" width="130" height="70" as="geometry" />
        </mxCell>
        <mxCell id="KAy5WQcNETprFYr2Bd6S-103" style="edgeStyle=orthogonalEdgeStyle;rounded=0;orthogonalLoop=1;jettySize=auto;html=1;entryX=1;entryY=0.5;entryDx=0;entryDy=0;exitX=0;exitY=0.5;exitDx=0;exitDy=0;" parent="1" source="apikvBoegn-0U-0LGKsi-1" target="KAy5WQcNETprFYr2Bd6S-63" edge="1">
          <mxGeometry relative="1" as="geometry">
            <mxPoint x="416" y="404.4" as="sourcePoint" />
          </mxGeometry>
        </mxCell>
        <mxCell id="KAy5WQcNETprFYr2Bd6S-105" style="edgeStyle=orthogonalEdgeStyle;rounded=0;orthogonalLoop=1;jettySize=auto;html=1;exitX=0.5;exitY=1;exitDx=0;exitDy=0;" parent="1" source="apikvBoegn-0U-0LGKsi-2" edge="1">
          <mxGeometry relative="1" as="geometry">
            <mxPoint x="486.02857142857147" y="319.39999999999986" as="sourcePoint" />
            <mxPoint x="485.8600000000001" y="369.4" as="targetPoint" />
          </mxGeometry>
        </mxCell>
        <mxCell id="WmwB9j65BN_4iLi_Jy5D-4" style="edgeStyle=orthogonalEdgeStyle;rounded=0;orthogonalLoop=1;jettySize=auto;html=1;exitX=0.5;exitY=1;exitDx=0;exitDy=0;entryX=0;entryY=0.5;entryDx=0;entryDy=0;" parent="1" source="WmwB9j65BN_4iLi_Jy5D-1" target="KAy5WQcNETprFYr2Bd6S-63" edge="1">
          <mxGeometry relative="1" as="geometry">
            <mxPoint x="91" y="369.4" as="targetPoint" />
          </mxGeometry>
        </mxCell>
        <mxCell id="WmwB9j65BN_4iLi_Jy5D-5" value="USB" style="edgeLabel;html=1;align=center;verticalAlign=middle;resizable=0;points=[];" parent="WmwB9j65BN_4iLi_Jy5D-4" vertex="1" connectable="0">
          <mxGeometry x="-0.0312" y="3" relative="1" as="geometry">
            <mxPoint x="48" y="3" as="offset" />
          </mxGeometry>
        </mxCell>
        <mxCell id="WmwB9j65BN_4iLi_Jy5D-8" style="edgeStyle=orthogonalEdgeStyle;rounded=0;orthogonalLoop=1;jettySize=auto;html=1;exitX=1;exitY=0.5;exitDx=0;exitDy=0;entryX=0;entryY=0.5;entryDx=0;entryDy=0;" parent="1" source="WmwB9j65BN_4iLi_Jy5D-1" target="KAy5WQcNETprFYr2Bd6S-60" edge="1">
          <mxGeometry relative="1" as="geometry" />
        </mxCell>
        <mxCell id="WmwB9j65BN_4iLi_Jy5D-9" value="PWR" style="edgeLabel;html=1;align=center;verticalAlign=middle;resizable=0;points=[];" parent="WmwB9j65BN_4iLi_Jy5D-8" vertex="1" connectable="0">
          <mxGeometry x="0.1473" y="2" relative="1" as="geometry">
            <mxPoint x="-7" y="2" as="offset" />
          </mxGeometry>
        </mxCell>
        <mxCell id="WmwB9j65BN_4iLi_Jy5D-1" value="&lt;font style=&quot;&quot;&gt;&lt;span style=&quot;font-size: 16px;&quot;&gt;&lt;b&gt;USB-C Port&lt;/b&gt;&lt;/span&gt;&lt;br&gt;&lt;hr style=&quot;font-size: 10px;&quot;&gt;16 pin&lt;br&gt;&lt;/font&gt;" style="rounded=1;whiteSpace=wrap;html=1;fillColor=#fff2cc;strokeColor=#d6b656;" parent="1" vertex="1">
          <mxGeometry x="26" y="249.39999999999998" width="130" height="70" as="geometry" />
        </mxCell>
        <mxCell id="WmwB9j65BN_4iLi_Jy5D-2" value="" style="shape=image;verticalLabelPosition=bottom;labelBackgroundColor=default;verticalAlign=top;aspect=fixed;imageAspect=0;image=data:image/png,iVBORw0KGgoAAAANSUhEUgAAB9AAAAPABAMAAACfj//CAAAAElBMVEVHcEwAAAAAAAAAAAAAAAAAAABWYIjnAAAABXRSTlMArOgzcihHVDQAAB2BSURBVHja7N1LduM2GgbQyNICbJc5LyfmXLasuWxL87YS7H8rXUn3yamHH3oQJPDj3hWwKH71ASAI//YbAAAAAAAAAAAAAAAAAAAAAAAAAAAAAAAAAAAAAAAAAAAAAAAAAAAAAAAAAAAAAAAAAAAAAAAAAACQ1+pvS/cBonp8uurT/+xvb16kHeKl/N+Q/+tW1iGUbZfesr8RdQjT5n16j6hDDIvr9JH9i1sE1XtKn7lT6lC3+XX63H7jRkHNw/Y+HeSLWwXVuj8w59+G724W1JrzdDhJh/g5T+nVDYPwOU/pL7cMwudc0qE+s3Q883Soy6I/IejeskFV5l06yaVbB/XYnZbztF+6d1CLh3QqL9mgmgl6Ot2fbh+EnqCbpkMTA3fTdGhh4O5tOlSiOzPoBu8QfeD+z8q7wTuUPnDvzw56+sNthLLtzs+59TgovdDTEHzHBkXrBgl62riTUK7ZMDlX6dBAoXvFBg0Uuo9boIVCV+nQQKGbpUMLhW7hHQq1GDLnKh3KtBs06GnpjkJ55sPm3FkzUKL1wEG34x0KLPR+4KCnr24qlGY2dM5tmoHydIMH3Rs2KM1i+JxbjoPSPGQI+t5thfAjdxveoYGRu91xUJh1lqB7lQ5F6bME3dgd4o/cjd2hgZG7sTu0MHI3docGRu7G7lCQi2xBt2cGitFlC7r97lCKeb6c2+8OpZhlDLpvVaEQ64xBd3QcFKLPGfRL9xeiT9FN0qEQF1mDbpIO8afoJulQhi5v0E3SIfwU3SQdijDLHHSTdIg/RbfdHUqwyxx0292hAH3uoH91j2Fqi9w5txoH05tlD7rVOJjcOnvQk5sMU9vlD/rGXYbPrbbb7VUuff6gX/oJ4WOPT9epdlbj4APzxzH6Nj9HwcL7MX8KkXLL7vDBkP06xeHnhLcsrtM+UNA3flF4Y9CeYrn0m8LPwszN7XaHd0ftXQrH+zX4qc5TQN6vwQ+z8y5izr1fg+899iFz7pAZiD5sd+Qz/DBsvw6bcy/SIfb03It0+M6iT4IOluHsmIHK3afY7JiB+DkXdGgg57bGQQM5tzUOGsi5oNO8WQM5tweW1sV+fy7o0E7OnRpH2+aN5NxXLTSd8y4JOkS3S4IO0T03k3PfqdKu+yToEN0iCTqEX4jrBR0sxAk6VO+hqZw7YoY2zZKggwm6oTuYoGt0KN59aznX6Bi4CzpE1CVBh+gekqBDdIte0CG8XYM595kqrblIgg7RzXtBBwP3mPzwNGWWBB3C69rMuXPdacpDo4XuTzJhJU7QwUpcBP5sMg1ZJEEHhR7Wn358mjFrNufpP359mtG1G/RLvz4KXdAhjL7hoG/8/DTiouGc+6YFM3Q7YMEM3cY4UOj2y4BCt18GFLr9MjCgRdM59xqdRuzaDvrGE4BC9xodFLrX6FCFeeOF7u0aTVg3HnRv11Doh/o9kxG+tfnqGaAB5x79+vvNdpVvOWuE9YONZ4AGCv2sztzfLPNe3gjziqWHAIX+kduX7JeX//NZn7Sg0D9MyMsI15f/Hb9FdxpwcfqgfZwL7K3FwWQ5uh1rZpv9e5tLDwHhnfp96s1oV7i2FgfT9OX+pfz/iqzFwXkpet2MeIm5N+jaF4dCfzvn4w52e1N0GL/QR8557r1xG48B0e0qyHnmLTO+USW8RQ05z7xlxhQdhV5CzjNP0r96DFDovwx0l3X8f+QtOpweoP1miuvMOUn3Fp3o5rW8ipqbosPJjt9b+sdEV5pxu/ul5wCFXsgwN+N2d88BwT1UsRD3j3wv2HyLTvRC7ysa5fZersE4hX5X1XKCl2twSkm+TpmJmZdrcIqLupaneyN3GCE5d9Ne7trIHUYYCy8ru15r7nD8FpTJI9EbuUP2gtxMfcU5xu7TbQwAhf6mhZE7hC/0LPvdLz0JhLarsPqG/1bVS3RiW9RYfcN/q/qHJwGFXlz1rb1Eh+iFPvxynKU4FHqJc9mBl+M2ngQim9e6OD2zFAfZ5rrl/IWDzrs1OLTQj91M+rWYS58pdDjQsQdOlLRPtFfokKfQS3rbfKHQIXyhD1jpCp3Yai704SpdoRPb0UlZlnX9nUKH4Qu9tL9YNFPoMHxOlqX9Cwap9I0ngdDqO3DiZ0PsePeHFVHopVff+X8s3QlSKPTiP/Ca91biIHqhn78eZyWO4HYxInHe4H2/8SAQ2iLIGPe8wfsXDwIKvYox7jmDd+fKoNBrWbR6tuIO0Qv92+C9s1UG3g5HpD9MtuhN0OEt9Z4gNdw0/c5jQPRC7wMV+jf33qDDrx6irVodvyD3uvQYoNBr+3tFz3IO0Qv96KTLOQ2IV+hHJl3OaUDtJ0i940nO4TvHbjCp5WiGQ9fe7+ScBszCbiA7bOeMfTIo9Lq//Jh/PlF/3XgCUOi17wh//KTUbzwAKPQAn3LOP1qTu1XnKPQgn3i9G/XbFz8/rdg1sCV8/vTrsGV/s/Lj04xAB058aPV0/d1s/fZGmaPQg37jtVpt//aiylHojj2HcNYNFTq0KtQJUsAwhb53y6C+Qg/5fSrwg4gHTgAKHZpzodAhvj7ogRPA6YVeyQlSgEKHtsT/PhWIfuAEoNBBoSt0iGGh0CG+ne9TQaE7cAIUOqDQgQI4QQric4IUKHQnSEGEQnfgBMTnBClQ6AodFDpQAwdOQHxOkIIGdAodwnPgBCh0B06AQgcUOpRovtpur/5vu12t4v+LfZ9KY1bbq19eKO9vb15i/6sdOEFLHq/e3TWyv3pZKnSFTv0pf/psb9hV1F5X6DQT8+uDnvCbiLWu0Gkl5gevOu8DRt2BE4j5G1EP9s93ghQtmF8f+6C/xpqrPyh04ntKJ7gLNH534ATxLbp0kn2cUnfgBOo8fqkrdMLPzrt0htdNiJtwodAJPmzv01n2XyLcBSdIEdt9Ottde4XuBCnq8pwGcFv9Y+/7VOT8gIl65Ul34ASRnbcM98NEve4nX6Ej5wcFveqkK3TkvIFOV+jIefyk+z4VOW8g6Q6cIK7Bc17tbjGFTlzPKYM637IpdOQ8fgbmCp2o7lMmFe6GXSt0gpqlbKr7etMJUkR17vdqoQa2TpAiqHmXMee1vWRz4ARRPaes6lp6d4IUQd2nzKpakFPoBJ2gp+wqOnLGCVKYoDcwTXeCFCbo8ffNOEGKmGZpFLXMZH2fSsyBez9O0Cs5mcGBE8S0GynnlbxjU+gYuMcfvCt0DNwbGLzvFDoRPY+Y8wpW3h04QUiLNKriB+8OnCCkbtygl76JTKET0kMaWeFTWoVORKOuxFWwHucEKUJaj57zsjvw2PvhwAlqsEgTKLgEnSBFSN0UQS94Pc6BE0Q0S5Mo9hWbE6RQ6A1UukJHocevdIVOSP1UQS/0pAYHThDRxWQ5L3TXjBOkUOjxz4+bKXQU+rBKLEMHTqDQ48/SHTiBQm+g0hU6H6tzqtZNG/TiKl2h84nbGi96NnHOi3sH7ftUPpvs3lV40VMXemm7yhw48V/2zma5bRuMopJI72mz3Cu2tJcTay870d5SrPd/lU4naaadSSuRxM+9wDlPQEM4vAA+8DNcP9XyuyGVPdDVPvwi0OG66E7/QHDavI4R6QQ6uInu9rs3FwE64xcfgV6p6Eb/KvQv9gqin4xffGumfZ2ie32xmKFTnHaBig5ScKPoJv9X7AcrCc91Ls0Q6HCz6E43pQYN0WUuzdBwAm4X/WJTTl+KeK4SjDScgDGi2/z+RxXRRY7jCHQYJbpJOb25yNCJ/YAEOtw0Tw4cxfkdx9FBCsaKblFOH3REl1gE00EKRk8UgyJbexFC4DiODlIwIRH070bulUQX+MSXhhMwZen34fW41d+Oo+EETDNH/Ex2KeV5/tEi0GFiRGoX2Y5aop/c3nsEOqI7fKvcaK3cs4vD96kwWXTlIpvYyj13sYqGEzDjdEv4juRRTfSz1XAQ6Ih+cSinNxc5ci5/CHSYJbrs2exST/Sca/c9gQ6zRFf9ZvWoJ3rGtXtDoMNM0TWLbHJn7nnX7nSQgtmiS5ouuHLPuHYf/dpbM9kR/eJQZDsqip5t40vDCQgguqLpiiv3bGt3OkhBGHvkimySK/dsK2ICHQLFpFo1Zq8p+kntdyPQYdyEESuyDZqi52nlQAcpCJcMUinQinqepzxNBykIOGOUimwrVdFzOMT3qRA0GjqdBz2qip7jIgoNJyCo6DpFNslrcbnSkkCHwJs9marMUtbzDAU2Ah1Cn+qolNP3uqJ/yL/0CHTYmqTBoCt68k06DScgvOga5fTmIkziwKThBMQQXaLItlQWPXGBjUCHKKIrJMJeWfS0/7GFQIdIogsc5gzKoqe9X7on0CGS6NmLbNJb9LQvwtFDsWaSw62XpnMX2Zbaor8LBzodpOB20XOv//baoicsQdJwAmKKnrnIpr1FT5maNJyAqKLnTYbthU06gQ5JFMpYTm/FPU934EWgQ/SsPGR7yJW66B+CPxcNJ2DazMn3zepRXfST6huPQIfxEZFtHai+RU8m1ECgQwKHMpXTG3nPE10z5ftUSBOWeYpsS33R05zG0XACEq2Ks5h+py/6h+QLj0CHqdvfHEW2o77oSa7MEOiQ7pyrM3jGMk/jWgIdEkqUfPoYnMUlef+NXdjwfSrMET15kW3pIHr80zgaTkDaZXHqItvKQfT4+2ECHRLvfxNPoaOD6NHHhECH5AddaYtsg4PoF7VRoOEEzBY97cePFp7HPqMc+9kaHaQggOgpy+mth+hxxWq3BDpkED1hkW3pIfq71vaFhhMQRPR036zeeYge9dh99MKdhhMQRvR0Rbajh+gxj93H714IdAgkejLTPQ7dYx67j//f8AQ6BBM9VZHNxPOIpxbjX3U0nIBwoqcxvXURvYs1Am+Sn9hAPaInKbItXUR/jzQAzxcCHfKKnuKa5cpF9O8ynvN9KgQWPUGRbe8iepxj9yk7FxpOQGDRExzvHl1Ef4zi+ZZABwHR4xfZXKprUeprkzwn0CG86NGnlY3nEYL0edJzdMxqCC965CJb4yN6F97zKb8ODScgiuhxr1u2PqKvA//pbxcCHYREj1pOX/qIHra+1jzo3bmHukWPWWS78xE96GnFy/ZCoIOW6DFN3/uIHjBLmzeBhwBET1dkO/qIHq6Q/jz9V1kzpSGe6PGCxKeMHqyQ/jLjb6aDFEQVPVo5fWskeohlTfM66y+m4QREFinOFDMqo8+/MdN8eX2Y9wQ0nIDoidlXL/qn+1k8BjgVvQf4LQGXxjEKO+0FxojOEED8WRahyLZkWAHUTA+/Q1wxqgBqhC+n3zGoAHrHURVfjAOoh9DfrB4ZUgBBApfTB0YUQJEe0QEq4KB5nwcAQhK0nM5wAogSsMjWMJoAsqYjOkAFfHDVHaACnhAdoAJ6vmkBqIAO0QHKJ0yRjY/XAMRN3/HxGkD5hCinIzqAOgGKbHtGEUCdDaIDVECP6ACYTt8JgBKYW2RDdIAKTEd0AAvmFdkQHcDEdDpJAVTABtEBKuAJ0QEqoEd0gPI5d4gOUIHpB0QHqMD0HaIDlM/EcjqiA1jxgegALN4RHaAAzzsSHaB4eg7jAIrnifIaQPFsuDADUDwnrsAClO/5DtEBSmfOf3I4MnwAHp4f6DADUDyz/tsiogNYMK/hM6IDODDzn7XsGUEAfeb++zVEB9Bn9j9URXQAeeb/i/Q7BhFA3fPDAtEBSme+54sVowigTb9AdIDSeQrg+WLJOAIoswnh+aJlIAGEOS0QHaB4z3dhRG8YSgBZAhTWEB1AnVCeLxaMJYAqfTDPF1tGE6B4zxEdQJRNQM9pGgegyUdIz+k8ASBJqMIa36kC6HIO6zmiAyh6fgjrOV+1AAjSBfacr1oA9OgXiA5QOk/BPff6quX8aM6WUSiWgPN8E95zr8vu3cKeL99eH/Ve96B09ewU5fmcRD+UMSWa11mTInThBbREP8X5fQcj0cuZ4S8PRDqipyms+V2NO5c0L14GxgHREy5b9z6in8qaGc+Tp8YarYoVvY/1fHc+on8UNjWaB954iJ5qW2Z0Ne57cZPjtd7yA6KnKqz9xOjGzHt5s+NlS6QjepI1q9GNmRJzrB0YCkSPW1j7uVGkjJ53oz4Q6Yie4oLE1kb03QLTifRiRY9VQP8bm0J6qeXjSaZ/YFZposd+d9sU0otdrk4y/YBaZYnex35Am0J6uSE2xXQivSzR499rtqmvvZc7SZotkV636Ane2zb1tXXBs6QdP02+41Y5oqfYltrU14qOsAnrqh1ylSL6aSf/KqK6FojPRHq1oscurP3EpL5W+seZow/kaEBRiuiJ1qom9bXSj5nHH8jRgKIM0ftET2jy/VrxK9UlkV6l6Mne1ybH7uvip8obkV6h6JtkT2hy7H4ofqqMXrw/ope96CeDdxGH7rkX72v8Mhf9lHJaWxy7V9ER8Uik1yV62mMWi2P3Ku52j95FdQjmLHqiAvrkFSOH7iqRTgMKa9ETv6ctjt3ryK6WYalI9N7hZcShO5EOsyRKXx0d9D2v5b+TtLwAaxF9k/4ZDU7jqkmusZFOAwpT0XPMaINLsNV8qrUk0qsQPWkB3eg0rp5Dp4FIr0D0xIU1n9O4enKLSK9B9Ew/mvzduJr+U/DArqZ40ftMDyl/GlfT+nT0ickOy8xEz/bZofzduHemDJFezK+2yfaQ8l+qdjVNmbGRTgMKL9FzlorVr8zsmDOKK0GY8KOdck5m8U16ZRc9PxPp5Yqe98cSvzJT2S50bKuZM5FuI3qmAvrftGzRrSMdz1xE7zweky265uHoGtE8RO9zP+aRLboSe0aoSNE32R9zxRbdOtI7TDMQXeDeV8sWXYojkV6e6FkLaw6b9F1904aeUuWJrlEF3bNFJ9IhouiZC2sGm/Qq73LTU6o00UV+oIYtuhY0oChL9N51YqWjzolDA4qiRNe5vCi7Sa81qoj0gkTf6DyobIFtXenMGRvpIoc9iK5+VKpaYKt2/o6NdBpQqOojUUD/hegt2HrrRs/cNyhDdLHPiEULbN+ZOwyV9Y+ltqcSLbB19c4dekoVIbrcDJYssNX8qfXYBhT0lFIUvZd71BUrdzHoKeUv+kbvURtW7u6RvkY4MdElbzcIrt0rzyh6SpmLfpKcv4Jr98qve9FTylt00ZxqWbmrMfZiMl+rKokue1lxYOXu/u7tUE5HdFXPR28JWblHhwYUvqL3sg/bsnIn0iGQ6Mq3GsTW7hwiE+m2om+Un1bs3J3L2/SUchVd+4XbsHK3X2VxrqEgumYBffpCkZV7dOgpZSi6fLloqSQ632gQ6aaiy79sR9+upreM3st3x5hlFt1gz7nX8ZxkmhjpnGFmFr03eF6hUvqa2fODFZFuJfrG4oFlSul8XP0f+z8ON7R/I5OVqEwpnQXoL2hAYST6yWTwZY7jOIqb/psQ6dlE93nJihzHcZWTSDcU3ejfaIgcx3XMnemRfl4zZnlEd5q2ErfjuBU3a5nF8OURvXd6ZInbcewy/x3p1CYdRDebtQoVNjaZ8yKdI44Mom/MnlmgwkZtbe7JCWccyUW3e7kKVNgOzJyZJydEemrRXQro/yB77ziuuRPpbqI7/n/67JFOoM+PdF6WaUW3nLOZL82w7AwR6bwtU/LV8qkzt5Ri1fk7aEABZUU6gf5b6CkF+deJBDqRDkQ6gZ4j0neMGeju0gn0/2JsMYRrR3CVzwS6HPSUgvCRnquWzhFSuEjn0yBQjXROkAJGOg0oQDXSCfSQvwmRDld55rM1+2UWkQ7XyfBdOhMzcKSvGTO4RoZWMyw1rzDyfsOZnlJwneTd4yitXY10biVA/lnFXRm1SOfdCRHOfiitRYcGFBCBgZM49/0UkQ4R8mMOPeNNpEPxi3eiJ06ksyGC6yS8H3dgtG+CBhSgMK0ooasdnBDpoLN4Z+FOpEPWxfvAiTuRDuXTcuJuHum8RUFk8U7mRI10vgmEW4h+593w31Z5vXoZX7hlmx65xub4b6vyQgMKMNyms0GPHens0uEmonab2TC+0ddYRDrcxBsVdCIdKuDIQZxzpJ/XjBncNLMGDuKUGNuAgp5SEGlbyPXMqD8HX6tCHNotB+7GeymOQiCf6Xg+/dcg0kFlbuE5kQ6GvOA5kQ4V8IznvpHOl0Nwe6Zv8VwFGlBAxAXjFs9VoAEFRDQ9yM0Z7skQ6aBNiDtyeJ4l0mlAAWOY/YXLpx2DmCXSGXcYw/O8jfofjGAgtkQ6qG7Uz18Zv1CsiHSIyyvLdoXzEhpQQGReJoX6mapaUGhAAdHTZEKob5hnRDrYzbKRx+8nduf5I50hgwnr9wc0N4v0NWMGEVVH80jQUwpS7dWvh8o9mkcbfr5WhWSxfv+/BbVvO4YoHjSggIS58vL62zX8+f4rlseFBhSQWvZv9w+PvxT/dP8HkhPpUC5fviA4kQ4AWSOdBhQAhtCAAqAG6CkFQKQT6QBVRjoNKAAMoQEFQA3QUwqASKcBBUCVkU4DCgBD6CkFUAH0lAIg0mlAAVBGpF/oKQVQPnu+VgUg0vlaFaAE/mzvbpLThoIojBaJFhAbNLcpa078M5exWQC4tP+tZOAFpJ4wT+rX51RWgPnqghJ3HKCABBygAJNu0iHnpI9eM4jHAQpIwAEKMOkmHUw60OikO0ABGSb94DWDeNyUggTclIIEHKCADNyUApNu0iHlpO+9ZBBw0t2UggTclIIEHKCADAIfoCj+l32zeZtg0oUOJl3oEHHSR6FDPGEPUAgdbtjLKHQw6UIHky50CDHpX0KHeEoPUKzkppTQoUjMm1JCh5tO+joOUAgdisQ8QCF0KBPyppTQ4caT/iB0SDDpQoeAkx7wppTQoVTAm1JCh1IBD1AIHYrFO0AhdEgw6UKHBJMudKgw6aPQIZ5oByiEDjXCGYUOJl3o0MCkX0ahQ/uT/iV0iCfWTSmhwzyhDlAIHepM+qIHKIQO84S6KSV0mCnSTSmhQ61JfxA6xFN6gOIidAg46XF+W1XoUG3Sz0KHeOIcoBA6zBfmAIXQIcGkCx0STLrQoWZAo9AhniAHKIQOCSZd6JBg0oUOCSZd6FB30h+FDvEU35TaCh3iKf1t1SV+L13ocKXSAxRL/KsZocOVig9QLHBUSuhQfdLrP3kXOtSf9Opf04UOV3ub1v41Xehw/aSX9/AkdIjmVB7EVugQTDejiD9Ch/Ynveqjd6HDQpNe879MFzosNekVSxc6LFfSKHQIpZ+VxVbo0P6kTzuhQ/uTPj0dhA7NT/p0+RA6xDHMbWN3EDpE8Wt2HLcfdaHD4pM+TecPoUMMz9cEcr7pB3ihw0/5PVzXyOPni9Ch7Un/tr8rtNu9f/7/z1HosJZJ/zYUmVbGu4D2vU3peROQYNKF7k1AAiehQ/s6oYNJFzqYdKGDSRc6rMRG6JBAL3Qw6UIHky50MOlCB5MudDDpQgeTLnQo0AkdEjgJHUy60KEFz0KH9v3M9Tihw7pthA4J9EIHz+OEDp7HCR1iPI/rhQ6exwkdWnASOiT48D4IHXx4Fzq04Ch0SPDhvRc6tK8TOiTwLHRIoBc6JPiaPggd2rcROviaLnRowkno4Gu60KEF3SB08EBO6OCBnNAhhqPQIYGT0CGBXujQviS/suoHjdKFDs1L8dfpfszY9F7ooHShg9KFDkoXOqym9KPQIYGj0CGBv0KHBF4HoYNHckIHX9SFDj6+Cx3W8/H9KHQw6kKHNkb9fRA6+PwudGhCdy908AFe6NBI6p/3QoccrQ9ChwReXt/v9vtB6MAsG6GD0IUOQhc6CF3oIHRA6IDQAaEDQgehCx2ELnQQutBB6IDQAaEDQgeEDkIXOghd6CB0oYPQhQ5CB4QOCB0QOghd6CB0oYPQhQ5CFzoIHRA6IHRA6IDQQehCB6ELHYQudBA6IHRA6IDQAaGD0IUOQhc6CF3oIHSvNQgdEDogdEDoIHShg9CFDkIXOghd6CB0QOiA0AGhA0IHoQsdhC50ELrQQeiA0AGhA0IHhA5CFzoIXeggdKHDSnV3tXitAQAAAAAAAAAAAAAAAAAAAAAAAAAAAAAAAAAAAAAAAAAAAAAAAAAAAAAAAAAAAAAAAAAAAAAAAADa9Q/CIpgVPIQB/AAAAABJRU5ErkJggg==;" parent="1" vertex="1">
          <mxGeometry x="36" y="215" width="65" height="31.2" as="geometry" />
        </mxCell>
        <mxCell id="WmwB9j65BN_4iLi_Jy5D-16" value="&lt;font style=&quot;&quot;&gt;&lt;span style=&quot;font-size: 16px;&quot;&gt;&lt;b&gt;Temp. Sensor&lt;/b&gt;&lt;/span&gt;&lt;br&gt;&lt;hr style=&quot;font-size: 10px;&quot;&gt;STS40-CB1B-R3&lt;br&gt;&lt;/font&gt;" style="rounded=1;whiteSpace=wrap;html=1;fillColor=#d5e8d4;strokeColor=#82b366;" parent="1" vertex="1">
          <mxGeometry x="316" y="484.4" width="130" height="70" as="geometry" />
        </mxCell>
        <mxCell id="apikvBoegn-0U-0LGKsi-1" value="&lt;font style=&quot;&quot;&gt;&lt;span style=&quot;font-size: 16px;&quot;&gt;&lt;b&gt;Low-Pass Filter&lt;/b&gt;&lt;/span&gt;&lt;br&gt;&lt;hr style=&quot;font-size: 10px;&quot;&gt;&amp;nbsp;R/C, fg = 500Hz&lt;br&gt;&lt;/font&gt;" style="rounded=1;whiteSpace=wrap;html=1;fillColor=#d5e8d4;strokeColor=#82b366;" parent="1" vertex="1">
          <mxGeometry x="416" y="369.3999999999999" width="140" height="70" as="geometry" />
        </mxCell>
        <mxCell id="apikvBoegn-0U-0LGKsi-2" value="&lt;font style=&quot;&quot;&gt;&lt;span style=&quot;font-size: 16px;&quot;&gt;&lt;b&gt;Voltage Follower&lt;/b&gt;&lt;/span&gt;&lt;br&gt;&lt;hr style=&quot;font-size: 10px;&quot;&gt;&amp;nbsp;LTC6269&lt;br&gt;&lt;/font&gt;" style="rounded=1;whiteSpace=wrap;html=1;fillColor=#d5e8d4;strokeColor=#82b366;" parent="1" vertex="1">
          <mxGeometry x="416" y="249.39999999999998" width="140" height="70" as="geometry" />
        </mxCell>
        <mxCell id="3-U5LCugHPh-dIs5eWnf-10" value="&lt;p style=&quot;line-height: 70%;&quot;&gt;&lt;font style=&quot;font-size: 12px;&quot;&gt;20x&lt;/font&gt;&lt;/p&gt;" style="text;html=1;strokeColor=none;fillColor=none;align=center;verticalAlign=middle;whiteSpace=wrap;rounded=0;" vertex="1" parent="1">
          <mxGeometry x="400" y="106" width="40" height="10" as="geometry" />
        </mxCell>
      </root>
    </mxGraphModel>
  </diagram>
</mxfile>
